<?xml version="1.0" encoding="UTF-8" standalone="no"?>
<!-- Created with Inkscape (http://www.inkscape.org/) -->

<svg
   xmlns:dc="http://purl.org/dc/elements/1.1/"
   xmlns:cc="http://creativecommons.org/ns#"
   xmlns:rdf="http://www.w3.org/1999/02/22-rdf-syntax-ns#"
   xmlns:svg="http://www.w3.org/2000/svg"
   xmlns="http://www.w3.org/2000/svg"
   xmlns:sodipodi="http://sodipodi.sourceforge.net/DTD/sodipodi-0.dtd"
   xmlns:inkscape="http://www.inkscape.org/namespaces/inkscape"
   width="210mm"
   height="297mm"
   viewBox="0 0 210 297"
   version="1.1"
   id="svg8"
   inkscape:version="0.92.4 (5da689c313, 2019-01-14)"
   sodipodi:docname="icons.svg">
  <defs
     id="defs2" />
  <sodipodi:namedview
     id="base"
     pagecolor="#ffffff"
     bordercolor="#666666"
     borderopacity="1.0"
     inkscape:pageopacity="0.0"
     inkscape:pageshadow="2"
     inkscape:zoom="0.70710678"
     inkscape:cx="423.59954"
     inkscape:cy="611.22894"
     inkscape:document-units="mm"
     inkscape:current-layer="layer1"
     showgrid="false"
     inkscape:window-width="1920"
     inkscape:window-height="1137"
     inkscape:window-x="1912"
     inkscape:window-y="-8"
     inkscape:window-maximized="1" />
  <metadata
     id="metadata5">
    <rdf:RDF>
      <cc:Work
         rdf:about="">
        <dc:format>image/svg+xml</dc:format>
        <dc:type
           rdf:resource="http://purl.org/dc/dcmitype/StillImage" />
        <dc:title />
      </cc:Work>
    </rdf:RDF>
  </metadata>
  <g
     inkscape:label="Layer 1"
     inkscape:groupmode="layer"
     id="layer1">
    <path
       style="fill:none;stroke:#ff1493;stroke-width:0.26458332px;stroke-linecap:butt;stroke-linejoin:miter;stroke-opacity:1"
       d="m 98.940608,132.20402 v -13.34741 h -6.166361 v -6.37513 h 6.141971 v -5.57515"
       id="path815"
       inkscape:connector-curvature="0"
       sodipodi:nodetypes="cccccc" />
    <path
       style="fill:none;stroke:#ff1493;stroke-width:0.26458332px;stroke-linecap:butt;stroke-linejoin:miter;stroke-opacity:1"
       d="m 98.915359,106.90633 c 0,-8.590642 7.673111,-8.597509 7.673111,-8.597509 h 6.1421 v 6.550539 h -4.36242 c 0,0 -1.79621,0.0837 -1.79621,1.95457"
       id="path815-9-5"
       inkscape:connector-curvature="0"
       sodipodi:nodetypes="cccccc" />
    <path
       style="fill:none;stroke:#ff1493;stroke-width:0.26458332px;stroke-linecap:butt;stroke-linejoin:miter;stroke-opacity:1"
       d="M 99.073148,132.11117 H 81.453867 V 94.500897 h 37.514143 v 37.738563"
       id="path847"
       inkscape:connector-curvature="0"
       sodipodi:nodetypes="ccccc" />
    <path
       style="fill:none;stroke:#ff1493;stroke-width:0.26458332px;stroke-linecap:butt;stroke-linejoin:miter;stroke-opacity:1"
       d="m 106.41481,132.11113 12.5532,-0.004"
       id="path849"
       inkscape:connector-curvature="0"
       sodipodi:nodetypes="cc" />
    <path
       style="opacity:1;fill:#ff1493;fill-opacity:1;fill-rule:nonzero;stroke:#ff1493;stroke-width:1.34302723;stroke-linejoin:round;stroke-miterlimit:4;stroke-dasharray:none;stroke-dashoffset:0;stroke-opacity:1;paint-order:normal"
       d="m 83.02798,158.26446 v -18.57845 h 18.57849 18.57848 v 18.57845 18.57845 h -6.03684 -6.03683 v -9.19586 -9.19587 h 3.08861 3.0886 v -2.0539 -2.0539 h -3.04181 -3.04181 v -2.99212 c 0,-3.27355 0.003,-3.2932 0.56111,-3.76171 0.45657,-0.3832 0.83509,-0.43374 3.25286,-0.43429 l 2.26965,-5.3e-4 v -2.00722 -2.00723 h -3.40784 c -3.08176,0 -3.46238,0.017 -3.97759,0.17687 -1.54889,0.48087 -2.58913,1.68538 -3.1126,3.60418 -0.18719,0.68613 -0.20692,1.01831 -0.24264,4.08445 l -0.0388,3.33759 h -3.08234 -3.08234 l 0.02523,2.03057 0.02522,2.03055 3.06522,0.0246 3.06522,0.0247 v 9.19459 9.19459 H 93.276574 83.027991 Z"
       id="path851"
       inkscape:connector-curvature="0"
       inkscape:export-xdpi="32.987019"
       inkscape:export-ydpi="32.987019" />
    <path
       style="fill:none;stroke:#ff1493;stroke-width:0.26458332px;stroke-linecap:butt;stroke-linejoin:miter;stroke-opacity:1"
       d="m 106.54711,132.11113 v -13.34741 h 6.16636 v -6.37513 h -6.14197 v -5.57515"
       id="path815-7"
       inkscape:connector-curvature="0"
       sodipodi:nodetypes="cccccc" />
    <path
       style="opacity:1;fill:#ff1493;fill-opacity:1;fill-rule:nonzero;stroke:#ff1493;stroke-width:1.34399986;stroke-linejoin:round;stroke-miterlimit:4;stroke-dasharray:none;stroke-dashoffset:0;stroke-opacity:1;paint-order:normal"
       d="m 81.752047,201.1526 v -18.52084 h 18.520833 18.52083 v 18.52084 18.52083 h -5.95312 -5.95313 v -6.34133 -6.34134 l 2.97656,-0.0748 2.97657,-0.0748 0.074,-3.37344 0.074,-3.37344 h -3.05061 -3.05062 v -3.13399 c 0,-4.01376 -0.004,-4.00976 3.52656,-4.00976 h 2.55886 v -3.60071 -3.60071 l -3.90261,0.11618 c -4.64688,0.13833 -6.18598,0.60129 -7.93341,2.38636 -1.912211,1.9534 -2.282405,3.1561 -2.403225,7.80774 l -0.104799,4.03489 h -3.014437 -3.014438 v 3.43959 3.43958 h 3.042709 3.042708 v 6.35 6.35 h -8.466664 -8.466667 z"
       id="path868"
       inkscape:connector-curvature="0"
       inkscape:export-xdpi="32.987019"
       inkscape:export-ydpi="32.987019" />
    <path
       style="fill:none;stroke:#ff1493;stroke-width:0.26458332px;stroke-linecap:butt;stroke-linejoin:miter;stroke-opacity:1"
       d="m 182.40336,131.70989 -37.64494,0 V 94.099615 h 37.51414 v 37.738565"
       id="path847-9"
       inkscape:connector-curvature="0"
       sodipodi:nodetypes="ccccc" />
    <path
       style="fill:none;stroke:#ff1493;stroke-width:0.26458332px;stroke-linecap:butt;stroke-linejoin:miter;stroke-opacity:1"
       d="m 144.74244,111.90092 c 0,0 6.85554,-12.569474 17.17429,-17.794995"
       id="path938"
       inkscape:connector-curvature="0"
       sodipodi:nodetypes="cc" />
    <path
       style="fill:none;stroke:#ff1493;stroke-width:0.26458332px;stroke-linecap:butt;stroke-linejoin:miter;stroke-opacity:1"
       d="m 144.79323,118.77005 7.20931,-8.95585 c 1.54348,-2.22168 3.04329,-1.99128 3.04329,-1.99128 4.60706,1.23946 19.92885,23.83747 19.92885,23.83747"
       id="path940"
       inkscape:connector-curvature="0"
       sodipodi:nodetypes="cccc" />
    <path
       style="fill:none;stroke:#ff1493;stroke-width:0.26458332px;stroke-linecap:butt;stroke-linejoin:miter;stroke-opacity:1"
       d="m 168.05239,94.336199 c 0,0 -5.33202,2.946646 -9.12057,9.307661"
       id="path942"
       inkscape:connector-curvature="0" />
    <path
       style="fill:none;stroke:#ff1493;stroke-width:0.26458332px;stroke-linecap:butt;stroke-linejoin:miter;stroke-opacity:1"
       d="m 182.25944,129.07623 c 0,0 -7.53258,-13.39589 -23.43511,-25.50988"
       id="path944"
       inkscape:connector-curvature="0"
       sodipodi:nodetypes="cc" />
    <path
       style="fill:none;stroke:#ff1493;stroke-width:0.26458332px;stroke-linecap:butt;stroke-linejoin:miter;stroke-opacity:1"
       d="m 169.10773,139.26062 c 0,0 -5.33202,2.94664 -9.12057,9.30766"
       id="path942-8"
       inkscape:connector-curvature="0"
       inkscape:export-xdpi="33.681767"
       inkscape:export-ydpi="33.681767" />
    <path
       style="opacity:1;fill:#ff1493;fill-opacity:1;fill-rule:nonzero;stroke:#ff1493;stroke-width:0.47517574;stroke-linejoin:round;stroke-miterlimit:4;stroke-dasharray:none;stroke-dashoffset:0;stroke-opacity:1;paint-order:normal"
       d="m 146.00036,147.62781 v -8.43458 h 8.11029 c 4.46066,0 8.0703,0.0344 8.02142,0.0765 -0.0489,0.0421 -0.49329,0.31403 -0.9876,0.60438 -4.82437,2.83384 -10.38263,8.64179 -14.38621,15.03248 -0.36706,0.58592 -0.68775,1.08568 -0.71265,1.11057 -0.0249,0.0249 -0.0453,-3.7503 -0.0453,-8.38932 z"
       id="path946-9"
       inkscape:connector-curvature="0"
       inkscape:export-xdpi="33.681767"
       inkscape:export-ydpi="33.681767" />
    <path
       style="opacity:1;fill:#ff1493;fill-opacity:1;fill-rule:nonzero;stroke:#ff1493;stroke-width:0.47517574;stroke-linejoin:round;stroke-miterlimit:4;stroke-dasharray:none;stroke-dashoffset:0;stroke-opacity:1;paint-order:normal"
       d="m 146.00036,170.10067 v -6.3232 l 1.78293,-2.21272 c 0.98062,-1.21699 2.76551,-3.43717 3.96643,-4.93373 1.20092,-1.49657 2.35172,-2.85426 2.55733,-3.01711 0.86979,-0.68888 1.59336,-0.82295 2.35595,-0.43651 2.66127,1.34856 9.27042,9.27099 17.33965,20.78515 0.90819,1.29592 1.65126,2.37986 1.65126,2.40877 0,0.0289 -6.67205,0.0526 -14.82678,0.0526 h -14.82677 z"
       id="path948-2"
       inkscape:connector-curvature="0"
       inkscape:export-xdpi="33.681767"
       inkscape:export-ydpi="33.681767" />
    <path
       style="fill:none;stroke:#000000;stroke-width:0.26458332px;stroke-linecap:butt;stroke-linejoin:miter;stroke-opacity:1"
       d="m 140.69068,215.33579 -7.02431,-12.16646"
       id="path1005"
       inkscape:connector-curvature="0" />
    <path
       style="fill:none;stroke:#000000;stroke-width:0.26458332px;stroke-linecap:butt;stroke-linejoin:miter;stroke-opacity:1"
       d="m 140.69068,215.33579 6.94788,-12.43096"
       id="path1007"
       inkscape:connector-curvature="0"
       sodipodi:nodetypes="cc" />
    <path
       style="fill:none;stroke:#000000;stroke-width:0.26458332px;stroke-linecap:butt;stroke-linejoin:miter;stroke-opacity:1"
       d="m 133.66637,203.16933 c -2.73617,-5.94006 1.82351,-8.92676 2.5297,-9.23998 3.90943,-1.734 7.28347,-1.06185 9.47821,0.31765 0.73705,0.46327 4.04692,2.377 1.95259,8.68706"
       id="path1011"
       inkscape:connector-curvature="0"
       sodipodi:nodetypes="cssc" />
    <circle
       style="opacity:1;fill:#000000;fill-opacity:1;fill-rule:nonzero;stroke:#000000;stroke-width:1.34399986;stroke-linejoin:round;stroke-miterlimit:4;stroke-dasharray:none;stroke-dashoffset:0;stroke-opacity:1;paint-order:normal"
       id="path1013"
       cx="140.74179"
       cy="199.98061"
       r="4.3490887" />
    <path
       style="opacity:1;fill:#ff1493;fill-opacity:1;fill-rule:nonzero;stroke:#ff1493;stroke-width:0.33599997;stroke-linejoin:round;stroke-miterlimit:4;stroke-dasharray:none;stroke-dashoffset:0;stroke-opacity:1;paint-order:normal"
       d="m 139.53538,243.61048 c -0.19845,-0.339 -1.76031,-3.04226 -3.47081,-6.00725 -3.30032,-5.72077 -3.45413,-6.02292 -3.73275,-7.3324 -0.1673,-0.7863 -0.18427,-2.01125 -0.0373,-2.68978 0.26382,-1.21765 0.90426,-2.34125 1.85443,-3.25345 0.72894,-0.69982 1.11856,-0.95174 1.96385,-1.26981 1.40864,-0.53004 2.49227,-0.73359 3.90749,-0.73398 1.59979,-5.3e-4 2.90975,0.3088 4.22772,0.99804 1.60661,0.84018 2.49097,1.89092 2.92064,3.47011 0.19543,0.71824 0.20949,2.40678 0.0278,3.33679 -0.32436,1.66026 -0.19188,1.38739 -3.88006,7.9919 -1.86252,3.33525 -3.39401,6.07357 -3.40332,6.08514 -0.009,0.0116 -0.17928,-0.25631 -0.37772,-0.59531 z m 1.60455,-9.48807 c 0.57771,-0.12836 1.53237,-0.60452 2.01085,-1.00295 1.17485,-0.97832 1.82619,-2.36217 1.82514,-3.87772 -0.001,-1.48955 -0.53328,-2.71543 -1.61936,-3.7297 -0.54758,-0.51138 -1.23951,-0.90509 -2.0182,-1.14836 -0.7181,-0.22434 -2.06002,-0.22434 -2.77812,0 -0.87829,0.27439 -1.49369,0.64115 -2.1232,1.26539 -0.64427,0.63886 -1.02127,1.2287 -1.29059,2.01922 -0.25689,0.75403 -0.30038,1.94909 -0.10009,2.75062 0.51236,2.05036 2.17977,3.54677 4.26715,3.82952 0.49136,0.0666 1.24712,0.0227 1.82642,-0.10602 z"
       id="path1015"
       inkscape:connector-curvature="0" />
    <path
       inkscape:connector-curvature="0"
       id="path1062"
       d="M 180.06864,221.81421 C 174.93783,213.92093 166.90531,205.289 158.86167,199.0247 l -0.82043,-0.63894 0.2043,-0.34153 c 1.75251,-2.92986 5.34341,-6.62624 8.10943,-8.34765 0.37846,-0.23553 0.64608,-0.4631 0.62305,-0.52981 -0.0321,-0.0929 1.40303,-0.11693 6.97252,-0.11693 h 7.01289 v 17.02507 c 0,9.36379 -0.0133,17.02507 -0.0295,17.02507 -0.0162,0 -0.40561,-0.5786 -0.86529,-1.28577 z"
       style="opacity:1;fill:#ff1493;fill-opacity:1;fill-rule:nonzero;stroke:#ff1493;stroke-width:0.47517574;stroke-linejoin:round;stroke-miterlimit:4;stroke-dasharray:none;stroke-dashoffset:0;stroke-opacity:1;paint-order:normal" />
    <path
       style="opacity:1;fill:#ff1493;fill-opacity:1;fill-rule:nonzero;stroke:#000080;stroke-width:0.33599997;stroke-linejoin:round;stroke-miterlimit:4;stroke-dasharray:none;stroke-dashoffset:0;stroke-opacity:1;paint-order:normal"
       d="m 168.30503,218.59413 c -0.19845,-0.339 -1.76031,-3.04226 -3.47081,-6.00725 -3.30032,-5.72077 -3.45413,-6.02292 -3.73275,-7.3324 -0.1673,-0.7863 -0.18427,-2.01125 -0.0373,-2.68978 0.26382,-1.21765 0.90426,-2.34125 1.85443,-3.25345 0.72894,-0.69982 1.11856,-0.95174 1.96385,-1.26981 1.40864,-0.53004 2.49227,-0.73359 3.90749,-0.73398 1.59979,-5.3e-4 2.90975,0.3088 4.22772,0.99804 1.60661,0.84018 2.49097,1.89092 2.92064,3.47011 0.19543,0.71824 0.20949,2.40678 0.0278,3.33679 -0.32436,1.66026 -0.19188,1.38739 -3.88006,7.9919 -1.86252,3.33525 -3.39401,6.07357 -3.40332,6.08514 -0.009,0.0116 -0.17928,-0.25631 -0.37772,-0.59531 z m 1.60455,-9.48807 c 0.57771,-0.12836 1.53237,-0.60452 2.01085,-1.00295 1.17485,-0.97832 1.82619,-2.36217 1.82514,-3.87772 -10e-4,-1.48955 -0.53328,-2.71543 -1.61936,-3.7297 -0.54758,-0.51138 -1.23951,-0.90509 -2.0182,-1.14836 -0.7181,-0.22434 -2.06002,-0.22434 -2.77812,0 -0.87829,0.27439 -1.49369,0.64115 -2.1232,1.26539 -0.64427,0.63886 -1.02127,1.2287 -1.29059,2.01922 -0.25689,0.75403 -0.30038,1.94909 -0.10009,2.75062 0.51236,2.05036 2.17977,3.54677 4.26715,3.82952 0.49136,0.0666 1.24712,0.0227 1.82642,-0.10602 z"
       id="path1015-5"
       inkscape:connector-curvature="0"
       mask="none" />
    <path
       style="opacity:1;fill:#ff1493;fill-opacity:1;fill-rule:nonzero;stroke:#ff1493;stroke-width:0.47517574;stroke-linejoin:round;stroke-miterlimit:4;stroke-dasharray:none;stroke-dashoffset:0;stroke-opacity:1;paint-order:normal"
       d="m 182.65375,173.26639 c -0.10353,-0.11556 -0.68467,-0.94677 -1.29142,-1.84714 -1.73569,-2.57559 -3.31627,-4.66349 -5.53803,-7.3156 l -1.15234,-1.37554 1.18452,-2.13237 c 1.94446,-3.50044 2.18326,-4.0927 2.37312,-5.88554 0.2371,-2.23907 -0.27113,-3.95076 -1.53098,-5.15618 -2.2096,-2.11416 -5.93858,-2.7534 -9.36506,-1.60543 -0.46069,0.15435 -1.08106,0.41039 -1.3786,0.56897 -0.68583,0.36554 -1.98999,1.70767 -2.36965,2.43863 -0.15359,0.2957 -0.30169,0.52722 -0.32912,0.51449 -0.17129,-0.0795 -3.35834,-2.66376 -3.39943,-2.75649 -0.0671,-0.15151 1.02316,-1.79442 2.00397,-3.01963 0.95817,-1.19694 3.40156,-3.66172 4.48552,-4.52478 0.43732,-0.34821 1.17398,-0.88761 1.63703,-1.19869 0.46304,-0.31107 0.87192,-0.61335 0.90863,-0.67173 0.0488,-0.0776 1.97081,-0.10613 7.15614,-0.10613 h 7.08941 l 0.028,13.98488 c 0.0237,11.87771 0.005,14.45704 -0.12465,17.11854 -0.0839,1.72351 -0.16299,3.14405 -0.17569,3.15675 -0.0127,0.0127 -0.1078,-0.0715 -0.21132,-0.18701 z"
       id="path1065"
       inkscape:connector-curvature="0"
       inkscape:export-xdpi="33.681767"
       inkscape:export-ydpi="33.681767" />
    <path
       style="opacity:1;fill:#ff1493;fill-opacity:1;fill-rule:nonzero;stroke:#ff1493;stroke-width:0.25406685;stroke-linejoin:round;stroke-miterlimit:4;stroke-dasharray:none;stroke-dashoffset:0;stroke-opacity:1;paint-order:normal"
       d="m 170.37476,165.64609 c -0.15005,-0.25633 -1.33105,-2.30041 -2.62445,-4.54239 -2.49554,-4.32577 -2.61185,-4.55424 -2.82252,-5.54441 -0.12651,-0.59456 -0.13934,-1.52081 -0.0282,-2.03387 0.19949,-0.92074 0.68375,-1.77035 1.40223,-2.46011 0.55118,-0.52917 0.8458,-0.71966 1.48496,-0.96017 1.06515,-0.40079 1.88454,-0.55471 2.95466,-0.555 1.20968,-4e-4 2.20021,0.23351 3.1968,0.75467 1.21484,0.63531 1.88355,1.42983 2.20844,2.62393 0.14777,0.5431 0.15841,1.81989 0.021,2.52312 -0.24526,1.25541 -0.14509,1.04907 -2.93391,6.04309 -1.40835,2.52195 -2.56639,4.59253 -2.57343,4.60128 -0.007,0.009 -0.13556,-0.19381 -0.28561,-0.45014 z m 1.21329,-7.17442 c 0.43684,-0.0971 1.1587,-0.45711 1.52051,-0.75838 0.88836,-0.73976 1.38087,-1.78615 1.38008,-2.93214 -7.6e-4,-1.12633 -0.40324,-2.05328 -1.22448,-2.82022 -0.41405,-0.38668 -0.93726,-0.68439 -1.52607,-0.86833 -0.54299,-0.16964 -1.55768,-0.16964 -2.10068,0 -0.66412,0.20747 -1.12945,0.4848 -1.60546,0.95682 -0.48717,0.48307 -0.77223,0.92908 -0.97588,1.52684 -0.19425,0.57016 -0.22713,1.47381 -0.0757,2.07988 0.38742,1.55038 1.64824,2.6819 3.22661,2.8957 0.37155,0.0504 0.94301,0.0172 1.38105,-0.0801 z"
       id="path1015-0"
       inkscape:connector-curvature="0"
       inkscape:export-xdpi="33.681767"
       inkscape:export-ydpi="33.681767" />
    <path
       style="fill:none;stroke:#ff1493;stroke-width:0.26458332px;stroke-linecap:butt;stroke-linejoin:miter;stroke-opacity:1"
       d="m 47.17629,86.43438 -24.96094,4e-5 V 48.824154 H 59.729491 V 86.56271"
       id="path847-6"
       inkscape:connector-curvature="0"
       sodipodi:nodetypes="ccccc" />
    <path
       style="fill:none;stroke:#ff1493;stroke-width:0.26458332px;stroke-linecap:butt;stroke-linejoin:miter;stroke-opacity:1"
       d="m 47.17629,86.43438 12.553201,-0.004"
       id="path849-5"
       inkscape:connector-curvature="0"
       sodipodi:nodetypes="cc" />
    <path
       style="fill:none;stroke:#ff1493;stroke-width:0.28087315px;stroke-linecap:butt;stroke-linejoin:miter;stroke-opacity:1"
       d="m 22.21192,80.70723 v -26.1547 c 0,-5.729251 9.1922,-5.674298 18.43705,-5.739185 9.45501,-0.06635 18.967401,-0.122297 18.967401,5.739185 v 26.1547"
       id="path847-6-3"
       inkscape:connector-curvature="0"
       sodipodi:nodetypes="ccscc" />
    <path
       style="fill:none;stroke:#ff1493;stroke-width:0.28087315px;stroke-linecap:butt;stroke-linejoin:miter;stroke-opacity:1"
       d="m 59.616371,80.70723 c 0,5.72926 -9.192201,5.67429 -18.437051,5.73918 -9.45501,0.0663 -18.9674,0.12243 -18.9674,-5.73918"
       id="path847-6-3-4"
       inkscape:connector-curvature="0"
       sodipodi:nodetypes="csc" />
    <path
       style="fill:none;stroke:#ff1493;stroke-width:0.20400728px;stroke-linecap:butt;stroke-linejoin:miter;stroke-opacity:1"
       d="m 27.33011,77.12838 v -18.997 c 0,-4.16134 6.67659,-4.12143 13.39143,-4.16856 6.86748,-0.0482 13.77664,-0.0888 13.77664,4.16856 v 18.997"
       id="path847-6-3-8"
       inkscape:connector-curvature="0"
       sodipodi:nodetypes="ccscc" />
    <path
       style="fill:none;stroke:#ff1493;stroke-width:0.20400728px;stroke-linecap:butt;stroke-linejoin:miter;stroke-opacity:1"
       d="m 54.49818,77.12838 c 0,4.16135 -6.67659,4.12143 -13.39143,4.16856 -6.86748,0.0482 -13.77664,0.0889 -13.77664,-4.16856"
       id="path847-6-3-4-6"
       inkscape:connector-curvature="0"
       sodipodi:nodetypes="csc" />
    <path
       style="fill:none;stroke:#ff1493;stroke-width:0.1673056px;stroke-linecap:butt;stroke-linejoin:miter;stroke-opacity:1"
       d="M 29.77393,75.41956 V 59.8402 c 0,-3.4127 5.47545,-3.37997 10.98226,-3.41862 5.63199,-0.0395 11.29817,-0.0728 11.29817,3.41862 v 15.57936"
       id="path847-6-3-8-4"
       inkscape:connector-curvature="0"
       sodipodi:nodetypes="ccscc" />
    <path
       style="fill:none;stroke:#ff1493;stroke-width:0.1673056px;stroke-linecap:butt;stroke-linejoin:miter;stroke-opacity:1"
       d="m 52.05436,75.41956 c 0,3.41271 -5.47545,3.37997 -10.98226,3.41862 -5.632,0.0395 -11.29817,0.0729 -11.29817,-3.41862"
       id="path847-6-3-4-6-1"
       inkscape:connector-curvature="0"
       sodipodi:nodetypes="csc" />
    <circle
       style="opacity:1;fill:none;fill-opacity:1;fill-rule:nonzero;stroke:#ff1493;stroke-width:0.22620632;stroke-linejoin:round;stroke-miterlimit:4;stroke-dasharray:none;stroke-dashoffset:0;stroke-opacity:1;paint-order:normal"
       id="path1016"
       cx="40.8321"
       cy="67.58252"
       r="7.4233985" />
    <circle
       style="opacity:1;fill:none;fill-opacity:1;fill-rule:nonzero;stroke:#ff1493;stroke-width:0.16316515;stroke-linejoin:round;stroke-miterlimit:4;stroke-dasharray:none;stroke-dashoffset:0;stroke-opacity:1;paint-order:normal"
       id="path1016-9"
       cx="40.8321"
       cy="67.582512"
       r="5.3545804" />
    <circle
       style="opacity:1;fill:none;fill-opacity:1;fill-rule:nonzero;stroke:#ff1493;stroke-width:0.05393117;stroke-linejoin:round;stroke-miterlimit:4;stroke-dasharray:none;stroke-dashoffset:0;stroke-opacity:1;paint-order:normal"
       id="path1016-9-9"
       cx="48.818794"
       cy="59.923241"
       r="1.7698554" />
    <path
       style="opacity:1;fill:#ff1493;fill-opacity:1;fill-rule:nonzero;stroke:#ff1493;stroke-width:0.0525;stroke-linejoin:round;stroke-miterlimit:4;stroke-dasharray:none;stroke-dashoffset:0;stroke-opacity:1;paint-order:normal"
       d="m 33.230109,176.23383 c -4.914897,-0.19445 -7.930475,-0.77443 -9.81643,-1.88794 -0.693394,-0.4094 -1.437512,-1.17952 -1.725369,-1.78567 -0.456264,-0.96076 -0.428301,0.0146 -0.428301,-14.93958 0,-14.93785 -0.02644,-14.00524 0.422884,-14.91589 0.943422,-1.91204 3.58302,-2.99182 8.405289,-3.43836 2.025412,-0.18755 3.73766,-0.239 9.227343,-0.27725 6.933097,-0.0483 9.500135,0.0456 12.127476,0.44387 3.546015,0.53747 5.64056,1.59901 6.48566,3.28701 0.389334,0.77766 0.368673,-0.0551 0.369739,14.90326 7.94e-4,12.0746 -0.01114,13.77538 -0.09967,14.12213 -0.31678,1.24081 -1.241311,2.2385 -2.690185,2.90305 -1.803405,0.82717 -4.377177,1.28091 -8.487029,1.49623 -1.237681,0.0648 -12.556453,0.138 -13.791406,0.0891 z m 11.90625,-4.9245 c 5.189974,-0.25701 7.529779,-1.16628 8.228557,-3.19769 0.1387,-0.40322 0.138891,-0.41736 0.138891,-10.42486 0,-9.58265 -0.0054,-10.04071 -0.123619,-10.46948 -0.48722,-1.76728 -2.440117,-2.7879 -6.09409,-3.18486 -2.824416,-0.30685 -11.699652,-0.28723 -14.849739,0.0328 -2.073847,0.21071 -3.67906,0.6313 -4.666856,1.22281 -0.496172,0.29712 -1.09197,0.88019 -1.311447,1.28344 -0.389507,0.71566 -0.371698,0.18629 -0.371698,11.04914 0,8.73517 0.01247,10.0081 0.101395,10.34951 0.569529,2.18657 3.102012,3.1811 8.682677,3.40979 1.58682,0.065 8.485082,0.0176 10.265929,-0.0706 z"
       id="path1056"
       inkscape:connector-curvature="0" />
    <path
       style="opacity:1;fill:#ff1493;fill-opacity:1;fill-rule:nonzero;stroke:#ff1493;stroke-width:0.0525;stroke-linejoin:round;stroke-miterlimit:4;stroke-dasharray:none;stroke-dashoffset:0;stroke-opacity:1;paint-order:normal"
       d="m 35.214484,168.66158 c -3.106687,-0.15631 -4.975072,-0.67972 -5.834507,-1.63448 -0.356074,-0.39557 -0.509551,-0.74123 -0.586229,-1.32032 -0.04413,-0.33326 -0.06097,-3.28798 -0.04817,-8.44994 l 0.01968,-7.9375 0.159584,-0.39639 c 0.492294,-1.22279 2.071351,-1.92715 4.966718,-2.21545 2.082157,-0.20733 9.667862,-0.25203 11.542448,-0.068 1.762863,0.17304 3.112421,0.49353 3.943429,0.93645 0.447562,0.23855 0.985015,0.73025 1.152909,1.05477 0.296952,0.57398 0.292933,0.45084 0.293762,8.9995 7.93e-4,7.97175 -0.0016,8.11998 -0.133747,8.54799 -0.403784,1.3073 -2.007881,2.05717 -5.041935,2.35695 -1.766056,0.1745 -7.981833,0.24982 -10.433949,0.12643 z m 5.186135,-3.56744 c 1.333934,-0.1297 2.806943,-0.68915 3.811791,-1.44772 0.870265,-0.65696 1.786977,-1.74482 2.262949,-2.68542 0.769562,-1.52079 0.989545,-3.60955 0.55575,-5.27694 -0.640948,-2.46361 -2.507845,-4.46285 -4.923031,-5.27202 -4.884364,-1.63641 -9.936302,1.98751 -9.936302,7.12764 0,1.69829 0.487132,3.20633 1.459581,4.51849 0.406183,0.54808 1.293773,1.404 1.842061,1.77634 0.955736,0.64903 2.326995,1.14598 3.466669,1.25635 0.76181,0.0738 0.736156,0.0737 1.460532,0.003 z m 7.790174,-13.42878 c 0.75392,-0.20939 1.315813,-0.9579 1.306158,-1.73996 -0.0028,-0.22419 -0.03998,-0.5024 -0.08268,-0.61824 -0.474506,-1.28701 -2.1409,-1.61806 -3.050762,-0.60608 -0.679641,0.75593 -0.657958,1.75831 0.05342,2.46969 0.500843,0.50085 1.124886,0.67484 1.773864,0.49459 z"
       id="path1058"
       inkscape:connector-curvature="0" />
    <path
       style="opacity:1;fill:#ff1493;fill-opacity:1;fill-rule:nonzero;stroke:#ff1493;stroke-width:0.0525;stroke-linejoin:round;stroke-miterlimit:4;stroke-dasharray:none;stroke-dashoffset:0;stroke-opacity:1;paint-order:normal"
       d="m 39.080602,162.77509 c -2.163953,-0.25559 -3.955129,-1.85945 -4.466698,-3.99958 -0.197104,-0.82457 -0.156261,-2.00305 0.09619,-2.77545 0.559414,-1.71156 1.942553,-3.03137 3.683215,-3.51459 0.318264,-0.0883 0.660513,-0.11778 1.352163,-0.11625 0.854811,0.002 0.973257,0.0177 1.539886,0.20605 1.872334,0.62228 3.256534,2.20268 3.588689,4.09737 0.05095,0.29061 0.0698,0.75145 0.04872,1.19062 -0.144269,3.00496 -2.834806,5.26705 -5.842169,4.91183 z"
       id="path1060"
       inkscape:connector-curvature="0" />
    <path
       style="fill:none;stroke:#ff1493;stroke-width:0.26458332px;stroke-linecap:butt;stroke-linejoin:miter;stroke-opacity:1"
       d="m 46.620809,131.70925 -24.960944,4e-5 V 94.099033 h 37.514148 v 37.738547"
       id="path847-6-7"
       inkscape:connector-curvature="0"
       sodipodi:nodetypes="ccccc" />
    <path
       style="fill:none;stroke:#ff1493;stroke-width:0.26458332px;stroke-linecap:butt;stroke-linejoin:miter;stroke-opacity:1"
       d="m 46.620809,131.70925 12.553204,-0.004"
       id="path849-5-2"
       inkscape:connector-curvature="0"
       sodipodi:nodetypes="cc" />
    <path
       style="fill:none;stroke:#ff1493;stroke-width:0.20400728px;stroke-linecap:butt;stroke-linejoin:miter;stroke-opacity:1"
       d="m 26.774631,122.40325 v -18.997 c 0,-4.161337 6.67659,-4.121427 13.391427,-4.168557 6.867481,-0.0482 13.776642,-0.0888 13.776642,4.168557 l -2e-6,18.997"
       id="path847-6-3-8-5"
       inkscape:connector-curvature="0"
       sodipodi:nodetypes="ccscc" />
    <path
       style="fill:none;stroke:#ff1493;stroke-width:0.20400728px;stroke-linecap:butt;stroke-linejoin:miter;stroke-opacity:1"
       d="m 53.942698,122.40325 c 0,4.16135 -6.67659,4.12143 -13.391425,4.16856 -6.867484,0.0482 -13.776642,0.0889 -13.776642,-4.16856"
       id="path847-6-3-4-6-0"
       inkscape:connector-curvature="0"
       sodipodi:nodetypes="csc" />
    <path
       style="fill:none;stroke:#ff1493;stroke-width:0.1673056px;stroke-linecap:butt;stroke-linejoin:miter;stroke-opacity:1"
       d="m 29.218449,120.69443 v -15.57936 c 0,-3.4127 5.475446,-3.37997 10.98226,-3.41862 5.631995,-0.0395 11.29817,-0.0728 11.29817,3.41862 v 15.57936"
       id="path847-6-3-8-4-9"
       inkscape:connector-curvature="0"
       sodipodi:nodetypes="ccscc" />
    <path
       style="fill:none;stroke:#ff1493;stroke-width:0.1673056px;stroke-linecap:butt;stroke-linejoin:miter;stroke-opacity:1"
       d="m 51.498879,120.69443 c 0,3.41271 -5.475446,3.37997 -10.982257,3.41863 -5.631998,0.0395 -11.298173,0.0729 -11.298173,-3.41863"
       id="path847-6-3-4-6-1-6"
       inkscape:connector-curvature="0"
       sodipodi:nodetypes="csc" />
    <circle
       style="opacity:1;fill:none;fill-opacity:1;fill-rule:nonzero;stroke:#ff1493;stroke-width:0.22620632;stroke-linejoin:round;stroke-miterlimit:4;stroke-dasharray:none;stroke-dashoffset:0;stroke-opacity:1;paint-order:normal"
       id="path1016-6"
       cx="40.276615"
       cy="112.85738"
       r="7.4233985" />
    <circle
       style="opacity:1;fill:none;fill-opacity:1;fill-rule:nonzero;stroke:#ff1493;stroke-width:0.16316515;stroke-linejoin:round;stroke-miterlimit:4;stroke-dasharray:none;stroke-dashoffset:0;stroke-opacity:1;paint-order:normal"
       id="path1016-9-1"
       cx="40.276623"
       cy="112.85738"
       r="5.3545809" />
    <circle
       style="opacity:1;fill:none;fill-opacity:1;fill-rule:nonzero;stroke:#ff1493;stroke-width:0.05393117;stroke-linejoin:round;stroke-miterlimit:4;stroke-dasharray:none;stroke-dashoffset:0;stroke-opacity:1;paint-order:normal"
       id="path1016-9-9-5"
       cx="48.263309"
       cy="105.19811"
       r="1.7698554" />
    <path
       style="opacity:1;fill:#ff1493;fill-opacity:1;fill-rule:nonzero;stroke:#ff1493;stroke-width:0.14849244;stroke-linejoin:round;stroke-miterlimit:4;stroke-dasharray:none;stroke-dashoffset:0;stroke-opacity:1;paint-order:normal"
       d="m 21.467639,201.26967 v -18.61533 h 18.521777 18.52178 v 18.61533 18.61532 H 39.989416 21.467639 Z m 27.639943,13.30975 c 2.359642,-0.50095 3.647205,-1.23319 4.323223,-2.45861 0.274116,-0.49689 0.316431,-1.63416 0.368919,-9.9157 0.03261,-5.14494 0.0052,-9.87764 -0.06095,-10.51711 -0.222779,-2.15413 -1.408361,-3.16589 -4.506267,-3.84562 -1.721463,-0.37772 -2.351407,-0.40632 -8.86891,-0.4027 -7.334824,0.004 -8.926406,0.12707 -11.131777,0.86026 -1.330095,0.4422 -2.216502,1.07201 -2.666209,1.89439 -0.297897,0.54477 -0.332089,1.49067 -0.38168,10.55903 -0.0368,6.72934 0.01127,10.20481 0.148188,10.71328 0.390112,1.44877 1.778553,2.52593 3.874799,3.0061 1.942087,0.44487 3.594542,0.51719 10.437312,0.45684 5.489221,-0.0484 7.417927,-0.12821 8.463354,-0.35016 z"
       id="path1152"
       inkscape:connector-curvature="0"
       inkscape:export-xdpi="34.150002"
       inkscape:export-ydpi="34.150002" />
    <path
       style="opacity:1;fill:#ff1493;fill-opacity:1;fill-rule:nonzero;stroke:#ff1493;stroke-width:0.14849244;stroke-linejoin:round;stroke-miterlimit:4;stroke-dasharray:none;stroke-dashoffset:0;stroke-opacity:1;paint-order:normal"
       d="m 33.347769,212.03619 c -2.336829,-0.37448 -3.518953,-0.97605 -4.068887,-2.07063 -0.296436,-0.59002 -0.327115,-1.41435 -0.327115,-8.78944 0,-9.22441 -0.0217,-9.07539 1.437839,-9.87559 1.609537,-0.88243 3.035585,-1.04077 9.506267,-1.05548 6.41664,-0.0146 7.919275,0.12762 9.433338,0.89279 0.45499,0.22995 1.002225,0.65243 1.216075,0.93886 0.380473,0.50961 0.388818,0.70488 0.388818,9.09942 0,8.35473 -0.01003,8.59243 -0.3839,9.10686 -0.45979,0.63262 -1.700654,1.28677 -2.983695,1.57291 -1.120828,0.24997 -12.855493,0.39877 -14.21874,0.1803 z m 8.699624,-3.6021 c 2.025285,-0.61761 3.928848,-2.28372 4.818213,-4.21719 0.432861,-0.94103 0.496279,-1.32372 0.504458,-3.04405 0.0089,-1.85939 -0.02482,-2.03718 -0.611535,-3.22957 -1.14188,-2.32071 -3.101617,-3.79224 -5.684078,-4.26807 -4.641939,-0.85531 -9.043169,3.15684 -8.709117,7.9392 0.132712,1.89994 0.717807,3.28445 1.950828,4.61626 2.037853,2.20113 4.984682,3.04098 7.731231,2.20342 z m 6.738938,-13.34029 c 0.659182,-0.34087 0.931698,-0.80545 0.931698,-1.58831 0,-0.78287 -0.272516,-1.24744 -0.931698,-1.58832 -0.813562,-0.42071 -1.42439,-0.34526 -2.10129,0.25955 -0.502102,0.44863 -0.606737,0.67778 -0.606737,1.32877 0,0.65098 0.104635,0.88014 0.606737,1.32876 0.6769,0.60481 1.287728,0.68026 2.10129,0.25955 z"
       id="path1154"
       inkscape:connector-curvature="0"
       inkscape:export-xdpi="34.150002"
       inkscape:export-ydpi="34.150002" />
    <path
       style="opacity:1;fill:#ff1493;fill-opacity:1;fill-rule:nonzero;stroke:#ff1493;stroke-width:0.14849244;stroke-linejoin:round;stroke-miterlimit:4;stroke-dasharray:none;stroke-dashoffset:0;stroke-opacity:1;paint-order:normal"
       d="m 38.773341,206.24919 c -0.977244,-0.25661 -2.073561,-0.91248 -2.680229,-1.60343 -1.053936,-1.20037 -1.245455,-1.7342 -1.244772,-3.46964 7.94e-4,-1.90535 0.357653,-2.72585 1.69944,-3.90694 1.978543,-1.74159 4.725477,-1.73469 6.715339,0.0169 2.799914,2.46458 2.258145,6.78981 -1.063112,8.48738 -0.955643,0.48845 -2.540418,0.70849 -3.426666,0.47577 z"
       id="path1156"
       inkscape:connector-curvature="0"
       inkscape:export-xdpi="34.150002"
       inkscape:export-ydpi="34.150002" />
    <path
       style="fill:none;stroke:#ff1493;stroke-width:0.26458332px;stroke-linecap:butt;stroke-linejoin:miter;stroke-opacity:1"
       d="m 47.214287,43.019672 -24.960945,4e-5 V 5.4094547 H 59.767487 V 43.148003"
       id="path847-6-7-1"
       inkscape:connector-curvature="0"
       sodipodi:nodetypes="ccccc" />
    <path
       style="fill:none;stroke:#ff1493;stroke-width:0.26458332px;stroke-linecap:butt;stroke-linejoin:miter;stroke-opacity:1"
       d="m 47.214287,43.019672 12.5532,-0.004"
       id="path849-5-2-8"
       inkscape:connector-curvature="0"
       sodipodi:nodetypes="cc" />
    <path
       style="fill:none;stroke:#ff1493;stroke-width:0.26277986px;stroke-linecap:butt;stroke-linejoin:miter;stroke-opacity:1"
       d="M 23.454673,36.450101 V 11.980243 c 0,-5.3601806 8.600053,-5.3087729 17.249376,-5.3694806 8.845937,-0.062086 17.745562,-0.1143825 17.745562,5.3694806 v 24.469858"
       id="path847-6-3-8-5-5"
       inkscape:connector-curvature="0"
       sodipodi:nodetypes="ccscc" />
    <path
       style="fill:none;stroke:#ff1493;stroke-width:0.26277986px;stroke-linecap:butt;stroke-linejoin:miter;stroke-opacity:1"
       d="m 58.449611,36.450101 c 0,5.360198 -8.600053,5.308778 -17.249376,5.369484 -8.845937,0.06208 -17.745562,0.114513 -17.745562,-5.369484"
       id="path847-6-3-4-6-0-5"
       inkscape:connector-curvature="0"
       sodipodi:nodetypes="csc" />
    <path
       style="fill:none;stroke:#ff1493;stroke-width:0.19864389px;stroke-linecap:butt;stroke-linejoin:miter;stroke-opacity:1"
       d="M 27.725234,33.463951 V 14.966394 c 0,-4.05194 6.501067,-4.013078 13.039366,-4.058968 6.686928,-0.0469 13.41445,-0.08644 13.41445,4.058968 v 18.497557"
       id="path847-6-3-8-4-9-0"
       inkscape:connector-curvature="0"
       sodipodi:nodetypes="ccscc" />
    <path
       style="fill:none;stroke:#ff1493;stroke-width:0.19864389px;stroke-linecap:butt;stroke-linejoin:miter;stroke-opacity:1"
       d="m 54.17905,33.463951 c 0,4.05195 -6.501067,4.013078 -13.039366,4.058977 -6.686939,0.0469 -13.41445,0.08656 -13.41445,-4.058977"
       id="path847-6-3-4-6-1-6-8"
       inkscape:connector-curvature="0"
       sodipodi:nodetypes="csc" />
    <circle
       style="opacity:1;fill:none;fill-opacity:1;fill-rule:nonzero;stroke:#ff1493;stroke-width:0.27981082;stroke-linejoin:round;stroke-miterlimit:4;stroke-dasharray:none;stroke-dashoffset:0;stroke-opacity:1;paint-order:normal"
       id="path1016-6-6"
       cx="40.870094"
       cy="24.167807"
       r="9.1825333" />
    <circle
       style="opacity:1;fill:none;fill-opacity:1;fill-rule:nonzero;stroke:#ff1493;stroke-width:0.16316515;stroke-linejoin:round;stroke-miterlimit:4;stroke-dasharray:none;stroke-dashoffset:0;stroke-opacity:1;paint-order:normal"
       id="path1016-9-1-5"
       cx="40.870094"
       cy="24.167807"
       r="5.3545809" />
    <circle
       style="opacity:1;fill:none;fill-opacity:1;fill-rule:nonzero;stroke:#ff1493;stroke-width:0.06782863;stroke-linejoin:round;stroke-miterlimit:4;stroke-dasharray:none;stroke-dashoffset:0;stroke-opacity:1;paint-order:normal"
       id="path1016-9-9-5-5"
       cx="50.179707"
       cy="15.185619"
       r="2.2259276" />
    <path
       style="fill:none;stroke:#ff1493;stroke-width:0.27894828px;stroke-linecap:butt;stroke-linejoin:miter;stroke-opacity:1"
       d="M 64.154406,37.119477 V 11.144044 c 0,-5.6899898 9.129208,-5.6354173 18.310699,-5.6998589 9.390205,-0.06586 18.837415,-0.1213845 18.837415,5.6998589 v 25.975433"
       id="path847-6-3-8-4-9-0-2"
       inkscape:connector-curvature="0"
       sodipodi:nodetypes="ccscc" />
    <path
       style="fill:none;stroke:#ff1493;stroke-width:0.27894828px;stroke-linecap:butt;stroke-linejoin:miter;stroke-opacity:1"
       d="m 101.30252,37.119477 c 0,5.690004 -9.129207,5.635418 -18.310699,5.699874 -9.39022,0.06586 -18.837415,0.121553 -18.837415,-5.699874"
       id="path847-6-3-4-6-1-6-8-5"
       inkscape:connector-curvature="0"
       sodipodi:nodetypes="csc" />
    <circle
       style="opacity:1;fill:none;fill-opacity:1;fill-rule:nonzero;stroke:#ff1493;stroke-width:0.39292797;stroke-linejoin:round;stroke-miterlimit:4;stroke-dasharray:none;stroke-dashoffset:0;stroke-opacity:1;paint-order:normal"
       id="path1016-6-6-0"
       cx="82.613251"
       cy="24.065245"
       r="12.894691" />
    <circle
       style="opacity:1;fill:none;fill-opacity:1;fill-rule:nonzero;stroke:#ff1493;stroke-width:0.22912678;stroke-linejoin:round;stroke-miterlimit:4;stroke-dasharray:none;stroke-dashoffset:0;stroke-opacity:1;paint-order:normal"
       id="path1016-9-1-5-6"
       cx="82.613251"
       cy="24.065245"
       r="7.5192399" />
    <circle
       style="opacity:1;fill:none;fill-opacity:1;fill-rule:nonzero;stroke:#ff1493;stroke-width:0.09524925;stroke-linejoin:round;stroke-miterlimit:4;stroke-dasharray:none;stroke-dashoffset:0;stroke-opacity:1;paint-order:normal"
       id="path1016-9-9-5-5-5"
       cx="95.686394"
       cy="11.451895"
       r="3.1257877" />
    <path
       style="fill:none;stroke:#ff1493;stroke-width:0.26458332px;stroke-linecap:butt;stroke-linejoin:miter;stroke-opacity:1"
       d="m 137.17262,42.755086 -24.96094,4.3e-5 V 5.14487 h 37.51414 v 37.738547"
       id="path847-6-7-1-9"
       inkscape:connector-curvature="0"
       sodipodi:nodetypes="ccccc" />
    <path
       style="fill:none;stroke:#ff1493;stroke-width:0.26458332px;stroke-linecap:butt;stroke-linejoin:miter;stroke-opacity:1"
       d="m 137.17262,42.755086 12.5532,-0.004"
       id="path849-5-2-8-1"
       inkscape:connector-curvature="0"
       sodipodi:nodetypes="cc" />
    <path
       style="fill:none;stroke:#ff1493;stroke-width:0.26277986px;stroke-linecap:butt;stroke-linejoin:miter;stroke-opacity:1"
       d="M 113.41301,36.185516 V 11.715659 c 0.54551,-4.2149371 3.32324,-5.1180559 6.84991,-5.2429349 2.82647,-0.1000849 10.26717,-0.093473 10.26717,-0.093473 0,0 8.55336,-0.081687 11.07402,0.0563 4.00866,0.2194443 6.63,1.298858 6.80384,5.2801075 v 24.469857"
       id="path847-6-3-8-5-5-6"
       inkscape:connector-curvature="0"
       sodipodi:nodetypes="ccscscc" />
    <circle
       style="opacity:1;fill:none;fill-opacity:1;fill-rule:nonzero;stroke:#ff1493;stroke-width:0.31157646;stroke-linejoin:round;stroke-miterlimit:4;stroke-dasharray:none;stroke-dashoffset:0;stroke-opacity:1;paint-order:normal"
       id="path1016-6-6-4"
       cx="130.82843"
       cy="23.903221"
       r="10.224984" />
    <circle
       style="opacity:1;fill:none;fill-opacity:1;fill-rule:nonzero;stroke:#ff1493;stroke-width:0.18698937;stroke-linejoin:round;stroke-miterlimit:4;stroke-dasharray:none;stroke-dashoffset:0;stroke-opacity:1;paint-order:normal"
       id="path1016-9-1-5-5"
       cx="130.82843"
       cy="23.903221"
       r="6.1364188" />
    <circle
       style="opacity:1;fill:none;fill-opacity:1;fill-rule:nonzero;stroke:#ff1493;stroke-width:0.09165286;stroke-linejoin:round;stroke-miterlimit:4;stroke-dasharray:none;stroke-dashoffset:0;stroke-opacity:1;paint-order:normal"
       id="path1016-9-9-5-5-0"
       cx="141.19637"
       cy="13.862701"
       r="3.0077655" />
    <path
       style="fill:none;stroke:#ff1493;stroke-width:0.26277986px;stroke-linecap:butt;stroke-linejoin:miter;stroke-opacity:1"
       d="m 113.40474,36.102834 c 0.54551,4.214937 3.33151,5.200738 6.85818,5.325617 2.82647,0.100085 10.26717,0.09347 10.26717,0.09347 0,0 8.55336,0.08169 11.07402,-0.0563 4.00866,-0.219445 6.63,-1.298858 6.80384,-5.280108"
       id="path847-6-3-8-5-5-6-4"
       inkscape:connector-curvature="0"
       sodipodi:nodetypes="cscsc" />
    <path
       style="fill:none;stroke:#ff1493;stroke-width:0.22630584px;stroke-linecap:butt;stroke-linejoin:miter;stroke-opacity:1"
       d="M 115.84117,34.4873 V 13.413875 c 0.46979,-3.6299009 2.86197,-4.4076664 5.89914,-4.5152121 2.43415,-0.086193 8.84208,-0.080496 8.84208,-0.080496 0,0 7.36616,-0.070351 9.53694,0.048485 3.45225,0.1889851 5.70976,1.1185757 5.85946,4.5472261 v 21.073424"
       id="path847-6-3-8-5-5-6-2"
       inkscape:connector-curvature="0"
       sodipodi:nodetypes="ccscscc" />
    <path
       style="fill:none;stroke:#ff1493;stroke-width:0.22630584px;stroke-linecap:butt;stroke-linejoin:miter;stroke-opacity:1"
       d="m 115.83405,34.416093 c 0.46979,3.629901 2.86909,4.478873 5.90626,4.586419 2.43415,0.08619 8.84208,0.0805 8.84208,0.0805 0,0 7.36616,0.07035 9.53694,-0.04848 3.45225,-0.188986 5.70976,-1.118576 5.85946,-4.547225"
       id="path847-6-3-8-5-5-6-4-2"
       inkscape:connector-curvature="0"
       sodipodi:nodetypes="cscsc" />
    <path
       style="opacity:1;fill:#ff1493;fill-opacity:1;fill-rule:nonzero;stroke:#ff1493;stroke-width:0.105;stroke-linejoin:round;stroke-miterlimit:4;stroke-dasharray:none;stroke-dashoffset:0;stroke-opacity:1;paint-order:normal"
       d="M 160.66581,23.673802 V 5.0206777 h 18.58698 18.58698 V 23.673802 42.326927 h -18.58698 -18.58698 z m 31.94335,17.357567 c 1.31581,-0.369081 1.99047,-0.692883 2.68844,-1.290313 0.68102,-0.582932 1.2994,-1.824698 1.47919,-2.970379 0.18601,-1.185365 0.18302,-25.034791 -0.003,-26.193749 -0.3831,-2.383063 -1.78311,-3.7133015 -4.55612,-4.3290567 -0.97164,-0.2157548 -2.03367,-0.2346582 -12.96458,-0.2307611 -10.66365,0.0038 -12.01456,0.027547 -12.94399,0.2275226 -2.02942,0.4366487 -3.25902,1.2704908 -4.04328,2.7418977 -0.80842,1.5167545 -0.80114,1.3842455 -0.80367,14.6361425 -0.001,6.917009 0.0503,12.330931 0.12114,12.704449 0.57087,3.010154 2.38966,4.565422 5.76583,4.93042 0.58083,0.06279 6.26503,0.104064 12.63157,0.09171 11.54216,-0.02238 11.57856,-0.02331 12.62876,-0.317886 z"
       id="path2104"
       inkscape:connector-curvature="0"
       inkscape:export-xdpi="34.150002"
       inkscape:export-ydpi="34.150002" />
    <path
       style="opacity:1;fill:#ff1493;fill-opacity:1;fill-rule:nonzero;stroke:#ff1493;stroke-width:0.105;stroke-linejoin:round;stroke-miterlimit:4;stroke-dasharray:none;stroke-dashoffset:0;stroke-opacity:1;paint-order:normal"
       d="m 169.00018,38.487154 c -1.2308,-0.14433 -1.8201,-0.327303 -2.64041,-0.819838 -0.88685,-0.532479 -1.46151,-1.265809 -1.79911,-2.295869 -0.24584,-0.750038 -0.25683,-1.250773 -0.25683,-11.697645 0,-12.147841 -0.0258,-11.773881 0.89796,-12.985094 0.89435,-1.1725722 2.00889,-1.6418547 4.36169,-1.8365131 2.05769,-0.1702422 18.40376,-0.1625145 19.81309,0.00937 2.19422,0.2676047 3.60199,1.0137945 4.22812,2.2411191 0.5159,1.011239 0.54525,1.778372 0.50428,13.179928 l -0.0395,10.993703 -0.46409,0.912548 c -0.70673,1.389644 -1.72131,1.967319 -4.03382,2.296744 -1.08167,0.154088 -19.25887,0.155456 -20.57136,0.0016 z m 12.56771,-4.715791 c 3.24719,-0.781039 6.05702,-3.248141 7.25981,-6.374286 0.50653,-1.316515 0.67814,-2.293446 0.67574,-3.84679 -0.007,-4.63534 -2.94741,-8.513203 -7.54437,-9.950195 -0.83455,-0.260878 -1.27175,-0.30859 -2.83857,-0.309779 -1.57454,-0.0012 -2.00077,0.04504 -2.84427,0.308558 -3.45851,1.080451 -5.95552,3.487661 -7.08875,6.833786 -0.51694,1.526394 -0.60705,4.024897 -0.20282,5.623417 0.53674,2.12253 1.49806,3.746264 3.10821,5.249965 2.50835,2.342521 6.10015,3.277079 9.47502,2.465324 z m 9.0993,-17.314161 c 2.77279,-1.156494 2.36359,-5.271993 -0.58504,-5.884127 -2.733,-0.567368 -4.74308,2.596048 -3.09511,4.871003 0.75965,1.048678 2.4676,1.518865 3.68015,1.013124 z"
       id="path2106"
       inkscape:connector-curvature="0"
       inkscape:export-xdpi="34.150002"
       inkscape:export-ydpi="34.150002" />
    <path
       style="opacity:1;fill:#ff1493;fill-opacity:1;fill-rule:nonzero;stroke:#ff1493;stroke-width:0.105;stroke-linejoin:round;stroke-miterlimit:4;stroke-dasharray:none;stroke-dashoffset:0;stroke-opacity:1;paint-order:normal"
       d="m 177.61299,29.417573 c -2.9516,-0.793729 -4.88449,-3.721631 -4.39872,-6.663091 0.66361,-4.018301 4.93115,-6.233857 8.56193,-4.445053 2.28606,1.126287 3.64983,3.733507 3.24263,6.19918 -0.58426,3.537848 -4.02455,5.818244 -7.40584,4.908964 z"
       id="path2108"
       inkscape:connector-curvature="0"
       inkscape:export-xdpi="34.150002"
       inkscape:export-ydpi="34.150002" />
    <path
       style="fill:none;stroke:#ff1493;stroke-width:0.26458332px;stroke-linecap:butt;stroke-linejoin:miter;stroke-opacity:1"
       d="m 93.013015,87.55691 -24.96094,4.3e-5 V 49.946694 h 37.514145 v 37.738547"
       id="path847-6-7-1-9-7"
       inkscape:connector-curvature="0"
       sodipodi:nodetypes="ccccc" />
    <path
       style="fill:none;stroke:#ff1493;stroke-width:0.26458332px;stroke-linecap:butt;stroke-linejoin:miter;stroke-opacity:1"
       d="m 93.013015,87.55691 12.553205,-0.004"
       id="path849-5-2-8-1-3"
       inkscape:connector-curvature="0"
       sodipodi:nodetypes="cc" />
    <path
       style="fill:none;stroke:#ff1493;stroke-width:0.27460927px;stroke-linecap:butt;stroke-linejoin:miter;stroke-opacity:1"
       d="M 68.465893,81.538113 V 55.96671 c 0.570067,-4.404678 3.47284,-5.348452 7.158269,-5.478953 2.953707,-0.10459 10.729361,-0.09768 10.729361,-0.09768 0,0 8.938401,-0.08537 11.572533,0.05884 4.189124,0.229322 6.928464,1.357328 7.110134,5.517799 v 25.571403"
       id="path847-6-3-8-5-5-6-3"
       inkscape:connector-curvature="0"
       sodipodi:nodetypes="ccscscc" />
    <circle
       style="opacity:1;fill:none;fill-opacity:1;fill-rule:nonzero;stroke:#ff1493;stroke-width:0.31157646;stroke-linejoin:round;stroke-miterlimit:4;stroke-dasharray:none;stroke-dashoffset:0;stroke-opacity:1;paint-order:normal"
       id="path1016-6-6-4-7"
       cx="86.668823"
       cy="68.705048"
       r="10.224984" />
    <circle
       style="opacity:1;fill:none;fill-opacity:1;fill-rule:nonzero;stroke:#ff1493;stroke-width:0.18698938;stroke-linejoin:round;stroke-miterlimit:4;stroke-dasharray:none;stroke-dashoffset:0;stroke-opacity:1;paint-order:normal"
       id="path1016-9-1-5-5-9"
       cx="86.668823"
       cy="68.705048"
       r="6.1364188" />
    <circle
       style="opacity:1;fill:none;fill-opacity:1;fill-rule:nonzero;stroke:#ff1493;stroke-width:0.09165286;stroke-linejoin:round;stroke-miterlimit:4;stroke-dasharray:none;stroke-dashoffset:0;stroke-opacity:1;paint-order:normal"
       id="path1016-9-9-5-5-0-6"
       cx="97.036758"
       cy="58.664528"
       r="3.0077658" />
    <path
       style="fill:none;stroke:#ff1493;stroke-width:0.27460927px;stroke-linecap:butt;stroke-linejoin:miter;stroke-opacity:1"
       d="m 68.457251,81.451709 c 0.570067,4.404678 3.481482,5.434855 7.166911,5.565358 2.953707,0.104589 10.729361,0.09768 10.729361,0.09768 0,0 8.938401,0.08537 11.572533,-0.05884 4.189124,-0.229325 6.928464,-1.357328 7.110134,-5.517798"
       id="path847-6-3-8-5-5-6-4-1"
       inkscape:connector-curvature="0"
       sodipodi:nodetypes="cscsc" />
    <path
       style="fill:none;stroke:#ff1493;stroke-width:0.22630584px;stroke-linecap:butt;stroke-linejoin:miter;stroke-opacity:1"
       d="M 71.681565,79.289123 V 58.215699 c 0.46979,-3.629901 2.86197,-4.407667 5.89914,-4.515212 2.43415,-0.08619 8.84208,-0.0805 8.84208,-0.0805 0,0 7.36616,-0.07035 9.53694,0.04848 3.45225,0.188985 5.709765,1.118575 5.859465,4.547226 v 21.073424"
       id="path847-6-3-8-5-5-6-2-4"
       inkscape:connector-curvature="0"
       sodipodi:nodetypes="ccscscc" />
    <path
       style="fill:none;stroke:#ff1493;stroke-width:0.22630584px;stroke-linecap:butt;stroke-linejoin:miter;stroke-opacity:1"
       d="m 71.674445,79.217918 c 0.46979,3.629901 2.86909,4.478872 5.90626,4.586417 2.43415,0.08619 8.84208,0.0805 8.84208,0.0805 0,0 7.36616,0.07035 9.53694,-0.04848 3.45225,-0.188984 5.709765,-1.118576 5.859465,-4.547224"
       id="path847-6-3-8-5-5-6-4-2-7"
       inkscape:connector-curvature="0"
       sodipodi:nodetypes="cscsc" />
    <path
       style="opacity:1;fill:#ff1493;fill-opacity:1;fill-rule:nonzero;stroke:#ff1493;stroke-width:0.02625;stroke-linejoin:round;stroke-miterlimit:4;stroke-dasharray:none;stroke-dashoffset:0;stroke-opacity:1;paint-order:normal"
       d="m 39.876128,253.19667 c -0.805215,-0.0473 -1.546992,-0.24934 -2.298568,-0.6261 -1.187876,-0.59547 -2.109208,-1.51751 -2.692992,-2.69507 -0.326279,-0.65815 -0.502082,-1.23942 -0.60003,-1.98395 -0.0565,-0.42947 -0.02101,-1.42958 0.06567,-1.85059 0.235186,-1.14232 0.73977,-2.12961 1.510559,-2.95565 2.015435,-2.15987 5.288293,-2.54816 7.736065,-0.91778 1.393195,0.92796 2.307495,2.32314 2.616126,3.9921 0.07187,0.38864 0.09687,1.25917 0.04832,1.68236 -0.125166,1.09104 -0.512892,2.07808 -1.156067,2.94301 -0.248717,0.33447 -0.787538,0.8876 -1.112801,1.14235 -0.927444,0.72639 -2.140873,1.2022 -3.206779,1.25744 -0.181901,0.009 -0.375378,0.021 -0.429948,0.0257 -0.05457,0.005 -0.270372,-0.002 -0.479557,-0.0138 z"
       id="path2168"
       inkscape:connector-curvature="0"
       inkscape:export-xdpi="34.150002"
       inkscape:export-ydpi="34.150002" />
    <path
       style="opacity:1;fill:#ff1493;fill-opacity:1;fill-rule:nonzero;stroke:#ff1493;stroke-width:0.02625;stroke-linejoin:round;stroke-miterlimit:4;stroke-dasharray:none;stroke-dashoffset:0;stroke-opacity:1;paint-order:normal"
       d="m 36.420008,262.2256 c -5.567921,-0.0321 -6.356699,-0.0687 -7.462657,-0.34656 -1.439776,-0.36167 -2.386875,-1.06174 -2.968654,-2.19435 -0.206428,-0.40187 -0.402887,-0.98314 -0.496848,-1.47004 -0.06853,-0.35509 -0.06859,-0.36481 -0.06832,-11.01147 l 2.62e-4,-10.65607 0.08054,-0.38706 c 0.4128,-1.9839 1.488204,-3.10644 3.425865,-3.57602 1.195638,-0.28976 1.760852,-0.30951 10.111226,-0.3532 6.362726,-0.0333 9.790149,-0.0122 10.83927,0.0667 1.419543,0.10682 2.517301,0.35424 3.289509,0.74142 0.395613,0.19835 0.646602,0.37059 0.930984,0.63886 0.563825,0.53188 0.881364,1.13594 1.080029,2.05456 l 0.09036,0.41783 v 11.06289 c 0,12.21169 0.01667,11.21099 -0.19926,11.95567 -0.48673,1.67856 -1.843561,2.6038 -4.265583,2.90876 -1.475994,0.18584 -3.758764,0.20933 -14.386719,0.14804 z m 4.99401,-4.7131 c 1.850631,-0.20219 3.603623,-0.89506 5.090952,-2.01219 2.048195,-1.5384 3.455233,-3.76926 3.954401,-6.26974 0.154974,-0.7763 0.182176,-1.09398 0.179824,-2.10013 -0.0024,-0.99616 -0.04846,-1.44265 -0.231455,-2.24024 -0.537702,-2.3436 -1.88636,-4.46099 -3.768201,-5.91607 -0.70413,-0.54445 -1.674495,-1.10167 -2.497005,-1.43388 -2.420503,-0.97765 -5.237202,-0.98795 -7.670744,-0.028 -3.398811,1.34064 -5.854325,4.37014 -6.44869,7.95609 -0.187462,1.13102 -0.182324,2.43102 0.01402,3.54731 0.267938,1.52336 0.939313,3.08468 1.860296,4.32625 1.360141,1.83359 3.219696,3.1436 5.400315,3.8044 1.286039,0.38971 2.727569,0.51797 4.11629,0.36625 z m 10.037631,-17.40808 c 0.839242,-0.2415 1.555429,-0.83608 1.934366,-1.60592 0.232407,-0.47216 0.296783,-0.76633 0.296751,-1.35608 -2.6e-5,-0.53298 -0.04436,-0.76373 -0.23395,-1.2176 -0.212058,-0.50766 -0.741942,-1.11334 -1.223052,-1.39801 -0.883343,-0.52267 -1.928122,-0.58234 -2.873796,-0.16411 -0.617527,0.2731 -1.213662,0.87453 -1.506095,1.51948 -0.203756,0.44937 -0.247423,0.67677 -0.245179,1.27678 0.0019,0.49545 0.01027,0.5725 0.09125,0.83663 0.342294,1.11625 1.208378,1.9157 2.337567,2.15771 0.325805,0.0698 1.102355,0.0431 1.422136,-0.0489 z"
       id="path2170"
       inkscape:connector-curvature="0"
       inkscape:export-xdpi="34.150002"
       inkscape:export-ydpi="34.150002" />
    <path
       style="opacity:1;fill:#ff1493;fill-opacity:1;fill-rule:nonzero;stroke:#ff1493;stroke-width:0.29698488;stroke-linejoin:round;stroke-miterlimit:4;stroke-dasharray:none;stroke-dashoffset:0;stroke-opacity:1;paint-order:normal"
       d="m 22.056504,230.60584 -0.0024,-1.96443 2.899875,0.0376 c 2.576309,0.0334 2.73983,0.0752 1.465512,0.37481 -1.753103,0.41217 -2.760147,1.08937 -3.668406,2.46688 l -0.692049,1.04959 z"
       id="path2172"
       inkscape:connector-curvature="0"
       inkscape:export-xdpi="34.150002"
       inkscape:export-ydpi="34.150002" />
    <path
       style="opacity:1;fill:#ff1493;fill-opacity:1;fill-rule:nonzero;stroke:#ff1493;stroke-width:0.29698488;stroke-linejoin:round;stroke-miterlimit:4;stroke-dasharray:none;stroke-dashoffset:0;stroke-opacity:1;paint-order:normal"
       d="m 57.78553,231.15269 c -0.528119,-0.84526 -1.304965,-1.39102 -2.619243,-1.8401 l -1.868442,-0.63843 2.712786,-0.0164 2.712786,-0.0164 v 1.87088 c 0,1.02899 -0.04209,1.8644 -0.09354,1.85648 -0.05145,-0.008 -0.431403,-0.55517 -0.844344,-1.21608 z"
       id="path2176"
       inkscape:connector-curvature="0"
       inkscape:export-xdpi="34.150002"
       inkscape:export-ydpi="34.150002" />
    <path
       style="opacity:1;fill:#ff1493;fill-opacity:1;fill-rule:nonzero;stroke:#ff1493;stroke-width:0.29698488;stroke-linejoin:round;stroke-miterlimit:4;stroke-dasharray:none;stroke-dashoffset:0;stroke-opacity:1;paint-order:normal"
       d="m 55.273991,265.2151 c 0.675283,-0.21641 1.727658,-0.96279 2.338607,-1.65862 l 1.110819,-1.26515 v 1.69681 1.69682 l -2.338607,-0.0382 c -2.18766,-0.0357 -2.259359,-0.0636 -1.110819,-0.43166 z"
       id="path2178"
       inkscape:connector-curvature="0"
       inkscape:export-xdpi="34.150002"
       inkscape:export-ydpi="34.150002" />
    <path
       style="opacity:1;fill:#ff1493;fill-opacity:1;fill-rule:nonzero;stroke:#ff1493;stroke-width:0.29698488;stroke-linejoin:round;stroke-miterlimit:4;stroke-dasharray:none;stroke-dashoffset:0;stroke-opacity:1;paint-order:normal"
       d="m 22.055438,263.72053 0.0013,-1.96443 0.754687,1.23783 c 0.435737,0.71469 1.423503,1.54144 2.33721,1.95622 l 1.582523,0.71838 -2.338607,0.008 -2.33861,0.008 z"
       id="path2180"
       inkscape:connector-curvature="0"
       inkscape:export-xdpi="34.150002"
       inkscape:export-ydpi="34.150002" />
  </g>
</svg>
